# xmcd
#
# Track frame offsets:
#	182
#	16915
#	29252
#	40682
#	50710
#	64585
#	74455
#	88100
#	99655
#	112065
#	124542
#	140420
#	152062
#	164122
#	175235
#	187822
#
# Disc length: 2654 seconds
#
# Revision: 3
# Processed by: cddbd v1.5.2PL0 Copyright (c) Steve Scherf et al.
# Submitted via: audiograbber 1.83.01
#
DISCID=db0a5c10
DTITLE=Various Artist - Country and Western Time Vol.3
DYEAR=1991
DGENRE=Country
TTITLE0=Dave Dudley - When My Blue Moon Turns To Gold Again
TTITLE1=Ferlin Husky - Out Of The Clear Blue Sky
TTITLE2=Bobby Bare - Footprints In The Sands Of Time
TTITLE3=Linda Manning - Life Keeps Moving On
TTITLE4=Dave Dudley - I Was Country Before Barbara Mandrell
TTITLE5=Norville Dollar - What Makes Me Feel So Blue
TTITLE6=Freddy Quinn - Home On The Range
TTITLE7=Dave Dudley - Sentimental Journey
TTITLE8=Ferlin Husky - I Only Roll`em
TTITLE9=George Kent - The Great South State Truck Stop Disaster
TTITLE10=Karen O`donnell - I Know What It´s All About Now, Mama
TTITLE11=Bobby Bare - Music City U.S.A.
TTITLE12=Buddy Meredith - I Pledge Allegiance
TTITLE13=Bobby Bare - The Fool
TTITLE14=George Kent - Hello, I´m A Jukebox
TTITLE15=Freddy Quinn - Jambalaya
EXTD=
EXTT0=
EXTT1=
EXTT2=
EXTT3=
EXTT4=
EXTT5=
EXTT6=
EXTT7=
EXTT8=
EXTT9=
EXTT10=
EXTT11=
EXTT12=
EXTT13=
EXTT14=
EXTT15=
PLAYORDER=
